<?xml version="1.0" standalone="no"?>
<!DOCTYPE svg PUBLIC "-//W3C//DTD SVG 20010904//EN"
 "http://www.w3.org/TR/2001/REC-SVG-20010904/DTD/svg10.dtd">
<svg version="1.0" xmlns="http://www.w3.org/2000/svg"
 width="512.000000pt" height="512.000000pt" viewBox="0 0 512.000000 512.000000"
 preserveAspectRatio="xMidYMid meet">

<g transform="translate(0.000000,512.000000) scale(0.100000,-0.100000)"
fill="#000000" stroke="none">
<path d="M1360 4255 c-661 -83 -1125 -476 -1285 -1090 -44 -169 -57 -286 -62
-540 -6 -269 3 -379 47 -580 31 -140 70 -255 121 -357 183 -366 465 -627 799
-741 399 -135 1046 -139 1406 -7 339 125 613 401 756 762 46 115 94 275 86
283 -2 2 -87 29 -188 60 -273 83 -362 110 -495 151 -66 20 -141 42 -166 49
l-45 12 -18 -71 c-75 -293 -211 -470 -417 -539 -162 -55 -389 -39 -533 36
-235 124 -328 374 -329 882 0 208 11 311 48 452 29 109 56 165 120 251 92 123
230 204 388 229 210 32 395 -23 535 -160 66 -65 101 -121 138 -217 15 -41 29
-76 29 -78 3 -4 897 196 903 202 6 7 -61 171 -109 267 -223 446 -558 675
-1084 743 -146 19 -494 20 -645 1z"/>
<path d="M3937 3453 c-15 -71 -36 -179 -49 -240 l-21 -113 -204 0 -203 0 0
-185 0 -185 159 0 c88 0 162 -4 165 -8 2 -4 -10 -82 -28 -172 l-33 -165 -114
-2 c-63 -1 -122 -2 -131 -3 -17 0 -18 -16 -18 -185 l0 -185 94 0 93 0 -47
-236 c-34 -166 -44 -237 -36 -240 6 -2 93 -3 191 -2 l180 3 41 200 c23 110 44
217 48 238 l7 37 148 0 148 0 -47 -235 c-26 -129 -45 -237 -42 -240 8 -8 382
-6 382 2 0 4 21 112 47 240 l46 233 204 0 203 0 0 185 0 185 -165 0 c-126 0
-165 3 -164 13 0 6 15 84 33 172 l32 160 132 3 132 3 0 184 0 185 -95 0 c-94
0 -95 0 -90 23 3 12 25 120 49 240 l43 217 -192 0 -192 0 -26 -127 c-14 -71
-36 -179 -49 -240 l-23 -113 -148 0 c-137 0 -148 1 -143 18 3 9 24 109 46 222
22 113 42 213 44 223 4 16 -10 17 -188 17 l-193 0 -26 -127z m530 -745 c-3
-13 -15 -75 -27 -138 -12 -63 -26 -132 -31 -153 l-10 -38 -144 2 c-82 0 -145
5 -145 10 0 11 59 309 65 327 3 9 43 12 151 12 l146 0 -5 -22z"/>
</g>
</svg>
