<?xml version="1.0" standalone="no"?>
<!DOCTYPE svg PUBLIC "-//W3C//DTD SVG 20010904//EN"
 "http://www.w3.org/TR/2001/REC-SVG-20010904/DTD/svg10.dtd">
<svg version="1.0" xmlns="http://www.w3.org/2000/svg"
 width="260.000000pt" height="260.000000pt" viewBox="0 0 260.000000 260.000000"
 preserveAspectRatio="xMidYMid meet">

<g transform="translate(0.000000,260.000000) scale(0.100000,-0.100000)"
fill="#000000" stroke="none">
<path d="M420 2265 c0 -42 151 -1740 155 -1744 2 -2 166 -50 365 -106 l360
-104 361 103 c198 57 362 105 364 107 4 5 155 1702 155 1744 l0 25 -880 0
-880 0 0 -25z m1650 -89 c0 -2 -18 -205 -40 -452 -22 -247 -49 -552 -60 -679
-30 -346 -40 -438 -45 -443 -2 -2 -144 -44 -315 -93 l-310 -89 -310 89 c-171
49 -313 91 -315 93 -5 5 -15 97 -45 443 -11 127 -38 432 -60 679 -22 247 -40
450 -40 452 0 2 346 4 770 4 424 0 770 -2 770 -4z"/>
<path d="M825 1798 c4 -40 8 -88 11 -105 l5 -33 354 0 355 0 0 -47 c0 -27 -3
-72 -6 -100 l-7 -53 -233 0 c-145 0 -235 -4 -239 -10 -3 -6 -3 -53 1 -105 l7
-95 228 0 229 0 -5 -87 c-11 -162 -1 -146 -120 -186 l-105 -36 -104 35 c-113
38 -116 41 -116 130 l0 34 -103 0 -103 0 4 -87 c2 -49 7 -112 11 -142 l6 -54
203 -68 202 -67 198 65 c108 36 201 69 205 73 4 4 12 74 17 156 25 381 50 793
50 822 l0 32 -475 0 -475 0 5 -72z"/>
</g>
</svg>
