<?xml version="1.0" standalone="no"?>
<!DOCTYPE svg PUBLIC "-//W3C//DTD SVG 20010904//EN"
 "http://www.w3.org/TR/2001/REC-SVG-20010904/DTD/svg10.dtd">
<svg version="1.0" xmlns="http://www.w3.org/2000/svg"
 width="360.000000pt" height="360.000000pt" viewBox="0 0 360.000000 360.000000"
 preserveAspectRatio="xMidYMid meet">

<g transform="translate(0.000000,360.000000) scale(0.100000,-0.100000)"
fill="#000000" stroke="none">
<path d="M1710 3194 c-508 -41 -937 -329 -1165 -783 -184 -367 -184 -856 1
-1223 204 -407 578 -687 1019 -763 132 -23 339 -23 470 0 583 101 1040 558
1140 1140 23 131 23 339 0 470 -100 580 -557 1039 -1135 1139 -91 16 -256 25
-330 20z m-350 -604 c0 -39 1 -40 35 -40 34 0 35 1 35 40 l0 40 45 0 45 0 0
-120 0 -120 -45 0 -45 0 0 40 c0 39 -1 40 -35 40 -34 0 -35 -1 -35 -40 l0 -40
-40 0 -40 0 0 120 0 120 40 0 40 0 0 -40z m418 3 c-3 -36 -5 -38 -40 -41 l-38
-3 0 -80 0 -79 -40 0 -40 0 0 80 0 80 -35 0 c-34 0 -35 1 -35 40 l0 40 116 0
115 0 -3 -37z m145 -5 l24 -42 27 42 c24 38 30 42 66 42 l40 0 1 -47 c1 -27 2
-75 3 -108 2 -81 0 -85 -45 -85 l-39 0 0 58 0 57 -22 -37 c-12 -21 -25 -38
-29 -38 -4 0 -18 17 -31 38 l-23 37 -3 -57 -3 -58 -39 0 -40 0 0 120 0 120 44
0 c41 0 46 -3 69 -42z m287 -38 l0 -80 55 0 55 0 0 -40 0 -40 -100 0 -100 0 0
120 0 120 45 0 45 0 0 -80z m225 -307 c-3 -21 -28 -299 -55 -618 -28 -319 -54
-595 -58 -614 l-7 -34 -245 -68 c-135 -38 -256 -69 -269 -69 -29 0 -502 129
-515 141 -5 4 -33 275 -62 601 -29 326 -55 617 -58 646 l-6 52 640 0 640 0 -5
-37z"/>
<path d="M1400 2013 c0 -5 9 -105 20 -223 11 -118 20 -225 20 -237 l0 -23 281
0 c262 0 280 -1 275 -17 -2 -10 -7 -56 -11 -103 l-6 -86 -90 -23 -90 -24 -88
23 -89 23 -6 69 -7 68 -81 0 -80 0 6 -52 c3 -29 8 -88 12 -130 l6 -78 42 -11
c22 -6 96 -26 163 -45 l123 -34 165 46 c126 36 165 50 165 63 0 9 9 113 20
231 11 118 20 221 20 228 0 9 -64 12 -289 12 l-289 0 -6 38 c-3 20 -7 57 -8
82 l-3 45 308 3 307 2 0 34 c0 18 3 54 6 80 l7 46 -402 0 c-220 0 -401 -3
-401 -7z"/>
</g>
</svg>
