<?xml version="1.0" standalone="no"?>
<!DOCTYPE svg PUBLIC "-//W3C//DTD SVG 20010904//EN"
 "http://www.w3.org/TR/2001/REC-SVG-20010904/DTD/svg10.dtd">
<svg version="1.0" xmlns="http://www.w3.org/2000/svg"
 width="512.000000pt" height="512.000000pt" viewBox="0 0 512.000000 512.000000"
 preserveAspectRatio="xMidYMid meet">

<g transform="translate(0.000000,512.000000) scale(0.100000,-0.100000)"
fill="#000000" stroke="none">
<path d="M370 2560 l0 -2190 2190 0 2190 0 0 2190 0 2190 -2190 0 -2190 0 0
-2190z m2690 75 l0 -195 -285 0 -285 0 0 -900 0 -900 -230 0 -230 0 0 900 0
900 -285 0 -285 0 0 195 0 195 800 0 800 0 0 -195z m1155 167 c50 -12 108 -27
130 -35 l40 -14 3 -216 2 -216 -92 44 c-262 126 -542 122 -668 -10 -34 -35
-35 -38 -35 -115 0 -76 1 -80 35 -116 47 -49 102 -84 325 -204 215 -115 296
-169 375 -250 104 -106 140 -209 140 -407 0 -199 -34 -287 -160 -414 -119
-120 -252 -174 -487 -200 -187 -20 -391 2 -590 63 l-103 31 0 238 0 237 88
-58 c144 -95 290 -140 454 -140 245 0 380 125 312 288 -33 80 -88 120 -359
260 -279 145 -355 202 -430 327 -58 96 -79 181 -79 310 0 240 109 422 312 524
91 45 125 57 240 82 120 26 413 21 547 -9z"/>
</g>
</svg>
